<svg id="Layer_1" data-name="Layer 1" xmlns="http://www.w3.org/2000/svg" viewBox="0 0 200 165"><defs><style>.cls-1{fill:#0081be;}.cls-2{fill:#fff;}</style></defs><rect class="cls-1" width="200" height="165" rx="20"/><rect class="cls-2" x="39.38086" y="115.82813" width="121.23828" height="15"/><path class="cls-2" d="M142.145,106.34082H58.3999V59.45605a17.52,17.52,0,0,1,17.5-17.5H124.645a17.52,17.52,0,0,1,17.5,17.5Zm-68.74512-15H127.145V59.45605a2.53338,2.53338,0,0,0-2.5-2.5H75.8999a2.53338,2.53338,0,0,0-2.5,2.5Z"/><path class="cls-2" d="M48.41113,77.8916H39.38086A16.55263,16.55263,0,0,1,22.84668,61.35742V41.67188h15V61.35742a1.5545,1.5545,0,0,0,1.53418,1.53418h9.03027Z"/><path class="cls-2" d="M160.61914,77.8916h-8.48535v-15h8.48535a1.5545,1.5545,0,0,0,1.53418-1.53418V41.67188h15V61.35742A16.55263,16.55263,0,0,1,160.61914,77.8916Z"/></svg>