<?xml version="1.0" encoding="UTF-8"?>
<svg width="4040px" height="1200px" viewBox="0 0 4040 1200" version="1.1" xmlns="http://www.w3.org/2000/svg" xmlns:xlink="http://www.w3.org/1999/xlink">
    <title>strapline full color</title>
    <defs>
        <path d="M62.1917906,124.343296 C27.887166,124.343296 0.0777929894,96.5339225 0.0777929894,62.2292979 C0.0777929894,27.9244418 27.887166,0.115068797 62.1917906,0.115068797 C96.4964152,0.115068797 124.30602,27.9244418 124.30602,62.2292979 C124.30602,96.5339225 96.4964152,124.343296 62.1917906,124.343296 Z" id="path-1"></path>
        <linearGradient x1="50%" y1="0%" x2="50%" y2="100%" id="linearGradient-3">
            <stop stop-color="#2A69D9" offset="0%"></stop>
            <stop stop-color="#1A59C8" offset="100%"></stop>
        </linearGradient>
        <linearGradient x1="50%" y1="0%" x2="50%" y2="100%" id="linearGradient-4">
            <stop stop-color="#BF87ED" offset="0%"></stop>
            <stop stop-color="#8B4FD7" offset="100%"></stop>
        </linearGradient>
        <path d="M95.7304228,112.522065 L170.505015,448.499535 L480.229219,601.495104 L789.971428,448.499535 L864.272965,114.576808 C923.457288,194.29848 958.469462,293.037708 958.469462,399.954467 C958.469462,664.628501 743.908764,879.189198 479.234731,879.189198 C214.560697,879.189198 5.68434189e-14,664.628501 5.68434189e-14,399.954467 C5.68434189e-14,292.117259 35.6176102,192.598988 95.7304228,112.522065 Z" id="path-5"></path>
        <linearGradient x1="50%" y1="18.4423675%" x2="50%" y2="65.6612252%" id="linearGradient-7">
            <stop stop-color="#CAA1EC" offset="0%"></stop>
            <stop stop-color="#A372DC" offset="100%"></stop>
        </linearGradient>
        <linearGradient x1="50%" y1="18.4423675%" x2="50%" y2="65.6612252%" id="linearGradient-8">
            <stop stop-color="#CAA1EC" offset="0%"></stop>
            <stop stop-color="#A372DC" offset="100%"></stop>
        </linearGradient>
        <path d="M42.2247172,83.9415479 C19.0450392,83.9415479 0.25417862,65.1506874 0.25417862,41.9705386 C0.25417862,18.7908606 19.0450392,0 42.2247172,0 C65.4043953,0 84.1952559,18.7908606 84.1952559,41.9705386 C84.1952559,65.1506874 65.4043953,83.9415479 42.2247172,83.9415479 Z" id="path-9"></path>
        <path d="M79.1352222,157.967663 C35.5999049,157.967663 0.30736785,122.675657 0.30736785,79.1403398 C0.30736785,35.6050226 35.5999049,0.313016264 79.1352222,0.313016264 C122.670009,0.313016264 157.962546,35.6050226 157.962546,79.1403398 C157.962546,122.675657 122.670009,157.967663 79.1352222,157.967663 Z" id="path-11"></path>
    </defs>
    <g id="strapline-full-color" stroke="none" stroke-width="1" fill="none" fill-rule="evenodd">
        <g id="Logo" transform="translate(244.000000, 39.000000)">
            <g id="Group-8" transform="translate(0.000000, 136.953967)">
                <g id="Group" transform="translate(0.809974, 0.574221)">
                    <g id="Group-136" transform="translate(565.835301, 0.353469)">
                        <mask id="mask-2" fill="white">
                            <use xlink:href="#path-1"></use>
                        </mask>
                        <g id="Clip-135"></g>
                        <polygon id="Fill-134" fill="#FD863A" mask="url(#mask-2)" points="-1.07984078 -1.04256497 125.463654 -1.04256497 125.463654 125.500929 -1.07984078 125.500929"></polygon>
                    </g>
                    <polygon id="Path" fill="url(#linearGradient-3)" fill-rule="nonzero" points="480.229219 6.24008285 170.505015 159.235652 133.160729 329.673938 149.505015 470.499535 479.5 625.380969 807.094323 461.505969 830.127526 343.338001 789.971428 159.235652"></polygon>
                    <mask id="mask-6" fill="white">
                        <use xlink:href="#path-5"></use>
                    </mask>
                    <use id="Combined-Shape" fill="url(#linearGradient-4)" fill-rule="nonzero" xlink:href="#path-5"></use>
                    <g id="linbes" mask="url(#mask-6)" fill-rule="nonzero" stroke-width="13">
                        <g transform="translate(-341.463032, -153.087408)">
                            <line x1="396.754141" y1="85.660836" x2="733.611431" y2="1667.90276" id="Path-7" stroke="#A372DC"></line>
                            <line x1="1251.05201" y1="92.7720356" x2="893.358187" y2="1667.90276" id="Path-8" stroke="#A372DC"></line>
                            <line x1="639.643549" y1="0.562554167" x2="0.303822995" y2="788.169583" id="Path-10" stroke="#A372DC"></line>
                            <line x1="1027.62903" y1="22.3406031" x2="1583.71758" y2="757.321977" id="Path-11" stroke="#A372DC"></line>
                            <line x1="1553.18175" y1="1131.34039" x2="64.1835338" y2="384.331084" id="Path-9" stroke="url(#linearGradient-7)"></line>
                            <line x1="1578.30496" y1="1144.75721" x2="61.8231453" y2="385.331084" id="Path-9" stroke="url(#linearGradient-8)" transform="translate(820.064053, 765.044146) scale(-1, 1) translate(-820.064053, -765.044146) "></line>
                        </g>
                    </g>
                </g>
            </g>
            <g id="bubbles" transform="translate(240.731865, 0.000000)">
                <g id="interior-core" transform="translate(97.905839, 0.325309)">
                    <mask id="mask-10" fill="white">
                        <use xlink:href="#path-9"></use>
                    </mask>
                    <g id="Clip-138"></g>
                    <polygon id="Fill-137" fill="#1FF6EF" mask="url(#mask-10)" points="-2.09932712 -2.35350574 86.5487616 -2.35350574 86.5487616 86.2950537 -2.09932712 86.2950537"></polygon>
                </g>
                <g id="bubble" transform="translate(0.000000, 179.987296)">
                    <mask id="mask-12" fill="white">
                        <use xlink:href="#path-11"></use>
                    </mask>
                    <g id="Clip-141"></g>
                    <polygon id="Fill-140" fill="#43CAF8" mask="url(#mask-12)" points="-2.04613789 -2.04048948 192.494277 -2.04048948 192.494277 192.499292 -2.04613789 192.499292"></polygon>
                </g>
            </g>
        </g>
        <path d="M1732.71,690.05 C1736.38333,690.05 1739.47667,688.793333 1741.99,686.28 C1744.50333,683.766667 1745.66333,680.77 1745.47,677.29 C1745.47,674.39 1744.40667,671.586667 1742.28,668.88 L1742.28,668.88 L1665.43,572.02 L1732.42,505.32 C1734.54667,503.193333 1735.61,500.196667 1735.61,496.33 C1735.61,493.043333 1734.40167,490.288333 1731.985,488.065 C1729.56833,485.841667 1726.71667,484.73 1723.43,484.73 C1719.56333,484.73 1716.27667,486.276667 1713.57,489.37 L1713.57,489.37 L1614.39,590.29 L1614.39,498.07 C1614.39,494.396667 1613.085,491.255 1610.475,488.645 C1607.865,486.035 1604.72333,484.73 1601.05,484.73 C1597.37667,484.73 1594.28333,486.035 1591.77,488.645 C1589.25667,491.255 1588,494.396667 1588,498.07 L1588,498.07 L1588,677 C1588,680.673333 1589.25667,683.766667 1591.77,686.28 C1594.28333,688.793333 1597.37667,690.05 1601.05,690.05 C1604.72333,690.05 1607.865,688.793333 1610.475,686.28 C1613.085,683.766667 1614.39,680.673333 1614.39,677 L1614.39,677 L1614.39,622.77 L1647.45,589.42 L1722.27,684.83 C1724.78333,688.31 1728.26333,690.05 1732.71,690.05 Z M2008.935,690.05 C2012.60833,690.05 2015.70167,688.793333 2018.215,686.28 C2020.72833,683.766667 2021.985,680.673333 2021.985,677 L2021.985,677 L2021.985,663.66 C2021.985,650.513333 2019.42333,637.125 2014.3,623.495 C2009.17667,609.865 1999.655,601.213333 1985.735,597.54 C1998.10833,593.286667 2007.53333,586.375 2014.01,576.805 C2020.48667,567.235 2023.725,556.65 2023.725,545.05 C2023.725,527.456667 2017.15167,513.246667 2004.005,502.42 C1990.85833,491.593333 1971.13833,486.18 1944.845,486.18 L1944.845,486.18 L1877.275,486.18 C1873.60167,486.18 1870.50833,487.485 1867.995,490.095 C1865.48167,492.705 1864.225,495.846667 1864.225,499.52 L1864.225,499.52 L1864.225,677 C1864.225,680.673333 1865.48167,683.766667 1867.995,686.28 C1870.50833,688.793333 1873.60167,690.05 1877.275,690.05 C1880.94833,690.05 1884.09,688.793333 1886.7,686.28 C1889.31,683.766667 1890.615,680.673333 1890.615,677 L1890.615,677 L1890.615,609.72 L1950.645,609.72 C1963.985,609.72 1973.94167,612.958333 1980.515,619.435 C1987.08833,625.911667 1991.245,633.258333 1992.985,641.475 C1994.725,649.691667 1995.595,658.633333 1995.595,668.3 L1995.595,668.3 L1995.595,677 C1995.595,680.866667 1996.80333,684.008333 1999.22,686.425 C2001.63667,688.841667 2004.875,690.05 2008.935,690.05 Z M1943.105,584.78 L1890.615,584.78 L1890.615,511.12 L1941.655,511.12 C1961.955,511.12 1976.31,514.213333 1984.72,520.4 C1993.13,526.586667 1997.335,535.48 1997.335,547.08 C1997.335,559.066667 1992.45333,568.346667 1982.69,574.92 C1972.92667,581.493333 1959.73167,584.78 1943.105,584.78 L1943.105,584.78 Z M2234.41,691.5 C2248.13667,691.5 2261.38,688.6 2274.14,682.8 C2286.9,677 2297.34,668.155 2305.46,656.265 C2313.58,644.375 2317.64,629.826667 2317.64,612.62 L2317.64,612.62 L2317.64,498.07 C2317.64,494.396667 2316.335,491.255 2313.725,488.645 C2311.115,486.035 2307.97333,484.73 2304.3,484.73 C2300.62667,484.73 2297.53333,486.035 2295.02,488.645 C2292.50667,491.255 2291.25,494.396667 2291.25,498.07 L2291.25,498.07 L2291.25,613.49 C2291.25,625.09 2288.59167,634.95 2283.275,643.07 C2277.95833,651.19 2270.95,657.28 2262.25,661.34 C2253.55,665.4 2244.27,667.43 2234.41,667.43 C2224.55,667.43 2215.27,665.4 2206.57,661.34 C2197.87,657.28 2190.86167,651.19 2185.545,643.07 C2180.22833,634.95 2177.57,625.09 2177.57,613.49 L2177.57,613.49 L2177.57,498.07 C2177.57,494.396667 2176.265,491.255 2173.655,488.645 C2171.045,486.035 2167.90333,484.73 2164.23,484.73 C2160.55667,484.73 2157.46333,486.035 2154.95,488.645 C2152.43667,491.255 2151.18,494.396667 2151.18,498.07 L2151.18,498.07 L2151.18,612.62 C2151.18,629.826667 2155.24,644.375 2163.36,656.265 C2171.48,668.155 2181.92,677 2194.68,682.8 C2207.44,688.6 2220.68333,691.5 2234.41,691.5 Z M2518.175,691.5 C2532.86833,691.5 2545.82167,689.083333 2557.035,684.25 C2568.24833,679.416667 2576.94833,672.698333 2583.135,664.095 C2589.32167,655.491667 2592.415,645.776667 2592.415,634.95 C2592.415,621.803333 2589.08,611.363333 2582.41,603.63 C2575.74,595.896667 2567.71667,590.193333 2558.34,586.52 C2548.96333,582.846667 2536.63833,579.173333 2521.365,575.5 C2509.57167,572.793333 2500.24333,570.231667 2493.38,567.815 C2486.51667,565.398333 2480.81333,562.015 2476.27,557.665 C2471.72667,553.315 2469.455,547.66 2469.455,540.7 C2469.455,530.26 2474.24,522.14 2483.81,516.34 C2493.38,510.54 2505.80167,507.64 2521.075,507.64 C2537.12167,507.64 2552.685,510.25 2567.765,515.47 C2569.69833,516.243333 2571.245,516.63 2572.405,516.63 C2575.885,516.63 2578.68833,515.373333 2580.815,512.86 C2582.94167,510.346667 2584.005,507.543333 2584.005,504.45 C2584.005,498.65 2581.29833,494.783333 2575.885,492.85 C2558.67833,486.47 2539.44167,483.28 2518.175,483.28 C2502.32167,483.28 2488.74,485.938333 2477.43,491.255 C2466.12,496.571667 2457.565,503.725 2451.765,512.715 C2445.965,521.705 2443.065,531.71 2443.065,542.73 C2443.065,555.296667 2446.545,565.35 2453.505,572.89 C2460.465,580.43 2468.77833,586.085 2478.445,589.855 C2488.11167,593.625 2500.775,597.54 2516.435,601.6 C2528.22833,604.693333 2537.315,607.351667 2543.695,609.575 C2550.075,611.798333 2555.44,614.843333 2559.79,618.71 C2564.14,622.576667 2566.315,627.41 2566.315,633.21 C2566.315,655.443333 2549.39833,666.56 2515.565,666.56 C2495.265,666.56 2476.22167,662.596667 2458.435,654.67 C2456.695,653.896667 2454.85833,653.51 2452.925,653.51 C2449.445,653.51 2446.59333,654.718333 2444.37,657.135 C2442.14667,659.551667 2441.035,662.403333 2441.035,665.69 C2441.035,668.203333 2441.80833,670.571667 2443.355,672.795 C2444.90167,675.018333 2446.835,676.613333 2449.155,677.58 C2470.615,686.86 2493.62167,691.5 2518.175,691.5 Z M2764.24,690.05 C2767.91333,690.05 2771.055,688.793333 2773.665,686.28 C2776.275,683.766667 2777.58,680.673333 2777.58,677 L2777.58,677 L2777.58,510.83 L2836.45,510.83 C2839.93,510.83 2842.87833,509.67 2845.295,507.35 C2847.71167,505.03 2848.92,502.13 2848.92,498.65 C2848.92,495.17 2847.71167,492.221667 2845.295,489.805 C2842.87833,487.388333 2839.93,486.18 2836.45,486.18 L2836.45,486.18 L2692.03,486.18 C2688.55,486.18 2685.65,487.388333 2683.33,489.805 C2681.01,492.221667 2679.85,495.17 2679.85,498.65 C2679.85,502.13 2681.01,505.03 2683.33,507.35 C2685.65,509.67 2688.55,510.83 2692.03,510.83 L2692.03,510.83 L2751.19,510.83 L2751.19,677 C2751.19,680.673333 2752.44667,683.766667 2754.96,686.28 C2757.47333,688.793333 2760.56667,690.05 2764.24,690.05 Z M3083.965,688.6 C3087.63833,688.6 3090.78,687.343333 3093.39,684.83 C3096,682.316667 3097.305,679.223333 3097.305,675.55 C3097.305,671.876667 3096,668.735 3093.39,666.125 C3090.78,663.515 3087.63833,662.21 3083.965,662.21 L3083.965,662.21 L2989.135,662.21 L2989.135,498.07 C2989.135,494.396667 2987.83,491.255 2985.22,488.645 C2982.61,486.035 2979.46833,484.73 2975.795,484.73 C2972.12167,484.73 2969.02833,486.035 2966.515,488.645 C2964.00167,491.255 2962.745,494.396667 2962.745,498.07 L2962.745,498.07 L2962.745,670.33 C2962.745,675.356667 2964.53333,679.658333 2968.11,683.235 C2971.68667,686.811667 2975.98833,688.6 2981.015,688.6 L2981.015,688.6 L3083.965,688.6 Z M3341.05,688.6 C3344.53,688.6 3347.47833,687.44 3349.895,685.12 C3352.31167,682.8 3353.52,679.9 3353.52,676.42 C3353.52,672.94 3352.31167,669.991667 3349.895,667.575 C3347.47833,665.158333 3344.53,663.95 3341.05,663.95 L3341.05,663.95 L3238.1,663.95 L3238.1,599.57 L3330.61,599.57 C3334.09,599.57 3337.03833,598.41 3339.455,596.09 C3341.87167,593.77 3343.08,590.87 3343.08,587.39 C3343.08,583.91 3341.87167,580.961667 3339.455,578.545 C3337.03833,576.128333 3334.09,574.92 3330.61,574.92 L3330.61,574.92 L3238.1,574.92 L3238.1,510.83 L3341.05,510.83 C3344.53,510.83 3347.47833,509.67 3349.895,507.35 C3352.31167,505.03 3353.52,502.13 3353.52,498.65 C3353.52,495.17 3352.31167,492.221667 3349.895,489.805 C3347.47833,487.388333 3344.53,486.18 3341.05,486.18 L3341.05,486.18 L3224.76,486.18 C3221.08667,486.18 3217.99333,487.485 3215.48,490.095 C3212.96667,492.705 3211.71,495.846667 3211.71,499.52 L3211.71,499.52 L3211.71,675.55 C3211.71,679.223333 3212.96667,682.316667 3215.48,684.83 C3217.99333,687.343333 3221.08667,688.6 3224.76,688.6 L3224.76,688.6 L3341.05,688.6 Z M3538.685,690.05 C3542.35833,690.05 3545.5,688.793333 3548.11,686.28 C3550.72,683.766667 3552.025,680.673333 3552.025,677 L3552.025,677 L3552.025,510.83 L3610.895,510.83 C3614.375,510.83 3617.32333,509.67 3619.74,507.35 C3622.15667,505.03 3623.365,502.13 3623.365,498.65 C3623.365,495.17 3622.15667,492.221667 3619.74,489.805 C3617.32333,487.388333 3614.375,486.18 3610.895,486.18 L3610.895,486.18 L3466.475,486.18 C3462.995,486.18 3460.095,487.388333 3457.775,489.805 C3455.455,492.221667 3454.295,495.17 3454.295,498.65 C3454.295,502.13 3455.455,505.03 3457.775,507.35 C3460.095,509.67 3462.995,510.83 3466.475,510.83 L3466.475,510.83 L3525.635,510.83 L3525.635,677 C3525.635,680.673333 3526.89167,683.766667 3529.405,686.28 C3531.91833,688.793333 3535.01167,690.05 3538.685,690.05 Z" id="KRUSTLET" fill="#1A59C8" fill-rule="nonzero"></path>
    </g>
</svg>