<svg height="60" viewBox="0 0 60 60" width="60" xmlns="http://www.w3.org/2000/svg"><g id="Page-1" fill="none" fill-rule="evenodd"><g id="021---Lightweight-Fabric" fill-rule="nonzero"><path id="Shape" d="m9.24 46.54c2.37.53 6.05.36 11.76-1.54 0 0-4 0-5-5 0 0 4 3 11 1 4.5918949-3.3496889 8.936476-7.0258729 13-11 0 0-6 0-9-4 0 0 8 2 12-1s8.45-8.61 11-12c2.0027813-2.8005505 3.6802472-5.81998918 5-9 0 0-4-3-14-3s-22 5-30 14c0 0-2 8-2 12 0 0-3-2-3-5 0 0-8 5-5 21z" fill="#e8edfc"/><path id="Shape" d="m45 1c-.382 0-.772.021-1.16.036 8.653.335 12.16 2.964 12.16 2.964-1.3197528 3.18001082-2.9972187 6.1994495-5 9-2.55 3.39-7 9-11 12-1.4783547.9830618-3.2015641 1.5343779-4.976 1.592 2.587.182 5.845.008 7.976-1.592 4-3 8.45-8.61 11-12 2.0027813-2.8005505 3.6802472-5.81998918 5-9 0 0-4-3-14-3z" fill="#cad9fc"/><path id="Shape" d="m31.465 26.549c-1.1661885-.103604-2.3239026-.287034-3.465-.549 3 4 9 4 9 4-4.063524 3.9741271-8.4081051 7.6503111-13 11-1.033334.2952645-2.0913446.496089-3.161.6 2.0731438.2006777 4.1655304-.0030931 6.161-.6 4.5918949-3.3496889 8.936476-7.0258729 13-11 0 0-5.424-.008-8.535-3.451z" fill="#cad9fc"/><path id="Shape" d="m1 59c.20333142-5.5538685 1.56582489-11.0038424 4-16 3.38-6.76 17.47-23.516 30.807-29.755.4678421-.2303715 1.0341738-.0625507 1.3009742.3855171s.1444886 1.0259391-.2809742 1.3274829c-7.37 5.259-19.715 15.818-27.827 32.042-1.25615183 2.5634641-2.2608503 5.2426601-3 8z" fill="#a4c2f7"/><g fill="#fff"><path id="Shape" d="m45 1c-10 0-22 5-30 14 0 0-1.156 4.63-1.71 8.608l.023.062c.2712398.6566605.9478669 1.0510849 1.6529267.9635361.7050597-.0875488 1.2646725-.6354798 1.3670733-1.3385361.567-3.903 1.667-8.295 1.667-8.295 7.694-8.656 19.084-13.6 28.84-13.964-.59-.023-1.202-.036-1.84-.036z"/><path id="Shape" d="m37.917 26.6c-1.3203062-.0886762-2.630688-.2893984-3.917-.6.135.18.29.365.461.551 1.1488016.1093586 2.3045597.1257453 3.456.049z"/><path id="Shape" d="m7.445 38.963c-.636-7.569 1.416-12.113 3.2-14.566-.4130679-.7320806-.634904-1.5564852-.645-2.397 0 0-8 5-5 21z"/><path id="Shape" d="m3.211 50.741-1.938-.495c.67523218-2.6555657 1.62466709-5.2337523 2.833-7.693l1.788.894c-1.1435054 2.332291-2.04262595 4.7766389-2.683 7.294z"/></g><path id="Shape" d="m3.091 47.617c.51585763.1815441 1.08187108-.0849695 1.27055959-.598257.18868852-.5132874-.06994126-1.0829465-.58055959-1.278743-.3366719-.1290968-.71677201-.0669494-.99479583.1626518s-.41091242.5910967-.34779529.946104.31246474.6485446.65259112.7682442z" fill="#428dff"/><path id="Shape" d="m45 0c-10.937 0-23.006 5.627-30.748 14.335-.1063968.121086-.1824882.265728-.222.422-.8271395 3.3148256-1.4615358 6.6747885-1.9 10.063-.687227-.7836355-1.0859358-1.7786433-1.13-2.82.0000009-.3635259-.1972759-.6984185-.515231-.8746446-.317955-.176226-.70649993-.1660241-1.014769.0266446-.35.219-8.543 5.548-5.453 22.032.07874982.4225509.41871139.7475106.84438401.8071229s.84182181-.1594597 1.03361599-.5441229c3.475-6.947 17.633-23.354 30.351-29.302-6.931 4.945-19.8 15.732-28.141 32.408-1.23872295 2.525678-2.23905943 5.1614374-2.988 7.873l-2.976 2.381c.20368392-2.0460212.56136467-4.0737701 1.07-6.066.13003972-.5298394-.18506392-1.0669781-.711-1.212-.25847243-.0725265-.53530379-.037199-.76727836.0979154-.23197457.1351143-.39928372.3584779-.46372164.6190846-.73171001 2.8283302-1.15517556 5.7275437-1.263 8.647-.01790747.2615229.05757138.520915.213.732.1657145.2072013.40697812.3400545.67067795.3693128.26369984.0292583.52821794-.0474769.73532205-.2133128l5-4c.17075416-.1367667.29194632-.3257562.345-.538.70198184-2.6105584 1.64607584-5.1499034 2.82-7.585 2.932.436 6.8-.137 11.526-1.709.465753-.1547317.7503816-.6245882.6718345-1.1090447-.0785471-.4844566-.4970518-.840311-.9878345-.8399553-1.3347693-.1117118-2.5301989-.8700625-3.2-2.03 3.0847965.9758489 6.3960621.972705 9.479-.009.1096325-.031202.2131235-.0809182.306-.147 4.6328079-3.3852655 9.0179603-7.0970387 13.122-11.107.2859079-.2859943.3714219-.7160366.216678-1.0896546-.1547439-.3736179-.5192821-.6172591-.923678-.6173454-1.9632685-.0699733-3.887936-.5653849-5.641-1.452 2.828.258 6.7.16 9.24-1.748 3.081-2.311 6.849-6.415 11.2-12.2 2.0584239-2.8687939 3.77944-5.96521361 5.129-9.228.1683446-.4198858.03384-.9004935-.328-1.172-.174-.131-4.384-3.2-14.6-3.2zm8.2 12.4c-1.461 1.942-2.844 3.671-4.157 5.213-.013 0-.026 0-.04 0-2.9196384.888701-5.9512626 1.3557523-9.003 1.387-.5522847 0-1 .4477153-1 1s.4477153 1 1 1c2.2394162-.011862 4.4716096-.2551546 6.661-.726-1.3098405 1.4237283-2.735017 2.7368573-4.261 3.926-3.567 2.677-11.082.848-11.158.83-.4105224-.1022754-.8409853.0648563-1.0749369.4173553-.2339515.352499-.2207618.8140803.0329369 1.1526447 1.9105444 2.2909716 4.6112508 3.7815703 7.568 4.177-3.5476596 3.323092-7.2906592 6.4312945-11.209 9.308-6.282 1.732-9.814-.78-9.959-.885-.3322431-.2493388-.7840357-.2673148-1.1350386-.045161-.3510029.2221537-.5281161.6381713-.4449614 1.045161.292674 1.8741517 1.3047091 3.5602788 2.821 4.7-2.2945749.6774074-4.6859926.9677166-7.076.859 6.5048483-11.8777658 15.6133323-22.1294683 26.643-29.987.8473153-.601587 1.092763-1.7518462.5648067-2.646895-.5279562-.8950488-1.6534067-1.2366659-2.5898067-.786105-12.205 5.71-24.819 19.831-29.826 27.7-1.116-9.481 1.965-14.229 3.773-16.139.63316419 1.5866476 1.71579 2.9539189 3.115 3.934.3071573.2049327.7022489.2239265 1.0276483.0494036s.528146-.514158.5273517-.8834036c0-3.453 1.585-10.171 1.912-11.52.8786959-.9708573 1.8058775-1.896704 2.778-2.774-.444803 1.7299691-.6765206 3.5078139-.69 5.294 0 .5522847.4477153 1 1 1s1-.4477153 1-1c.042859-2.599911.5508744-5.1711459 1.5-7.592.000475-.0073256.000475-.0146744 0-.022 2.5982383-1.96050721 5.4097516-3.62104786 8.381-4.95-.3642693.74369815-.6524016 1.52232552-.86 2.324-.0857437.34690489.0200973.71320196.2776539.96091067.2575566.2477087.6276997.33919618.971.24.3433003-.09919619.6076024-.37400578.6933461-.72091067.4046773-1.43039574 1.0469626-2.78257534 1.9-4v-.008c3.8882557-1.43260525 7.993461-2.18755443 12.137-2.232 7.277 0 11.268 1.642 12.737 2.412-1.2260277 2.81540198-2.7468465 5.49300845-4.537 7.988z" fill="#428dff"/></g></g></svg>