<?xml version="1.0" encoding="iso-8859-1"?>
<!-- Generator: Adobe Illustrator 19.0.0, SVG Export Plug-In . SVG Version: 6.00 Build 0)  -->
<svg version="1.1" id="Capa_1" xmlns="http://www.w3.org/2000/svg" xmlns:xlink="http://www.w3.org/1999/xlink" x="0px" y="0px"
	 height="60" width="60" viewBox="0 0 512.002 512.002" style="enable-background:new 0 0 512.002 512.002;" xml:space="preserve">
<g>
	<polygon style="fill:#7FACFA;" points="423.719,164.575 423.719,52.968 353.098,52.968 353.098,98.995 	"/>
	<polygon style="fill:#A4C2F7;" points="397.236,150.071 397.236,52.968 353.098,52.968 353.098,98.995 	"/>
	<polygon style="fill:#FFFFFF;" points="52.96,197.361 52.96,238.347 52.96,503.175 255.995,503.175 255.995,8.83 	"/>
	<polygon style="fill:#A4C2F7;" points="255.995,8.83 255.995,503.175 459.029,503.175 459.029,238.347 459.029,197.361 	"/>
	<polygon style="fill:#E3E7F2;" points="255.995,8.83 79.443,203.037 79.443,238.347 79.443,503.175 432.547,503.175 
		432.547,238.347 432.547,211.864 	"/>
	<path style="fill:#7FACFA;" d="M211.301,291.313h89.388c9.444,0,17.099,7.656,17.099,17.099v194.763H194.202V308.412
		C194.202,298.968,201.857,291.313,211.301,291.313L211.301,291.313z"/>
	<path style="fill:#A4C2F7;" d="M211.301,291.313h62.905c9.444,0,17.099,7.656,17.099,17.099v194.763h-97.103V308.412
		C194.202,298.968,201.857,291.313,211.301,291.313L211.301,291.313z"/>
	<g>
		<path style="fill:#428DFF;" d="M503.167,247.175c-2.229,0.004-4.377-0.839-6.009-2.358L255.995,20.877L14.831,244.817
			c-3.575,3.305-9.151,3.093-12.464-0.475s-3.113-9.144,0.447-12.465L249.986,2.36c3.388-3.147,8.629-3.147,12.017,0
			l247.172,229.517c2.659,2.471,3.534,6.317,2.207,9.696C510.056,244.951,506.797,247.174,503.167,247.175L503.167,247.175z"/>
		<path style="fill:#428DFF;" d="M459.029,361.933c-2.341,0.001-4.587-0.929-6.243-2.585c-1.656-1.656-2.585-3.901-2.585-6.243
			V201.213L255.995,20.877L61.788,201.213v37.134c0,4.875-3.952,8.828-8.828,8.828s-8.828-3.952-8.828-8.828v-40.983
			c0.001-2.454,1.022-4.798,2.819-6.47L249.986,2.36c3.388-3.147,8.629-3.147,12.017,0l203.034,188.534
			c1.795,1.673,2.816,4.016,2.819,6.47v155.741c0.001,2.341-0.929,4.587-2.585,6.243
			C463.616,361.004,461.371,361.934,459.029,361.933L459.029,361.933z"/>
		<path style="fill:#428DFF;" d="M459.029,512.002H52.96c-4.875,0-8.828-3.952-8.828-8.828V308.968c0-4.875,3.952-8.828,8.828-8.828
			s8.828,3.952,8.828,8.828v185.379h388.414v-70.621c0-4.875,3.952-8.828,8.828-8.828s8.828,3.952,8.828,8.828v79.448
			c0.001,2.341-0.929,4.587-2.585,6.243C463.616,511.073,461.371,512.003,459.029,512.002z"/>
		<path style="fill:#428DFF;" d="M317.788,512.002H194.202c-4.875,0-8.828-3.952-8.828-8.828V308.412
			c0.015-14.313,11.614-25.911,25.927-25.927h89.388c14.313,0.015,25.911,11.614,25.927,25.927v194.763
			C326.616,508.05,322.663,512.002,317.788,512.002z M203.029,494.347H308.96V308.412c-0.006-4.566-3.706-8.266-8.271-8.271h-89.388
			c-4.566,0.006-8.266,3.706-8.271,8.271V494.347z"/>
		<path style="fill:#428DFF;" d="M423.719,173.403c-2.229,0.001-4.375-0.842-6.009-2.358l-70.621-65.578
			c-1.797-1.672-2.818-4.015-2.819-6.47v-46.03c0-4.875,3.952-8.828,8.828-8.828h70.621c2.341-0.001,4.587,0.929,6.243,2.585
			c1.656,1.656,2.585,3.901,2.585,6.243v111.608C432.543,169.449,428.593,173.399,423.719,173.403z M361.926,95.149l52.966,49.181
			V61.795h-52.966V95.149z"/>
		<circle style="fill:#428DFF;" cx="52.96" cy="273.657" r="8.828"/>
		<circle style="fill:#428DFF;" cx="459.029" cy="388.416" r="8.828"/>
	</g>
</g>
<g>
</g>
<g>
</g>
<g>
</g>
<g>
</g>
<g>
</g>
<g>
</g>
<g>
</g>
<g>
</g>
<g>
</g>
<g>
</g>
<g>
</g>
<g>
</g>
<g>
</g>
<g>
</g>
<g>
</g>
</svg>
