<?xml version="1.0" encoding="iso-8859-1"?>
<!-- Generator: Adobe Illustrator 19.0.0, SVG Export Plug-In . SVG Version: 6.00 Build 0)  -->
<svg version="1.1" id="Capa_1" xmlns="http://www.w3.org/2000/svg" xmlns:xlink="http://www.w3.org/1999/xlink" x="0px" y="0px"
   height="60" width="60"
	 viewBox="0 0 511.997 511.997" style="enable-background:new 0 0 511.997 511.997;" xml:space="preserve">
<g>
	<polygon style="fill:#FFFFFF;" points="255.999,396.073 10.084,255.572 103.365,202.604 255.999,289.809 	"/>
	<polygon style="fill:#A4C2F7;" points="255.999,9.658 501.913,149.308 255.999,289.809 	"/>
	<polygon style="fill:#FFFFFF;" points="255.999,289.383 10.084,149.733 255.999,9.232 	"/>
	
		<linearGradient id="SVGID_1_" gradientUnits="userSpaceOnUse" x1="-49.3023" y1="651.9642" x2="-48.3023" y2="651.9642" gradientTransform="matrix(395.2253 0 0 -260.8302 19543.8965 170201.6875)">
		<stop  offset="0" style="stop-color:#D4E1F4"/>
		<stop  offset="0.1717" style="stop-color:#D4E1F4"/>
		<stop  offset="0.2" style="stop-color:#D4E1F4"/>
		<stop  offset="0.2001" style="stop-color:#DAE4F4"/>
		<stop  offset="0.2007" style="stop-color:#EBEBF4"/>
		<stop  offset="0.2014" style="stop-color:#F6F1F4"/>
		<stop  offset="0.2023" style="stop-color:#FDF4F4"/>
		<stop  offset="0.205" style="stop-color:#FFF5F4"/>
		<stop  offset="0.2522" style="stop-color:#FFF5F4"/>
		<stop  offset="0.26" style="stop-color:#FFF5F4"/>
		<stop  offset="0.26" style="stop-color:#D4E1F4"/>
		<stop  offset="0.3974" style="stop-color:#D4E1F4"/>
		<stop  offset="0.42" style="stop-color:#D4E1F4"/>
		<stop  offset="0.4201" style="stop-color:#DAE4F4"/>
		<stop  offset="0.4207" style="stop-color:#EBEBF4"/>
		<stop  offset="0.4214" style="stop-color:#F6F1F4"/>
		<stop  offset="0.4223" style="stop-color:#FDF4F4"/>
		<stop  offset="0.425" style="stop-color:#FFF5F4"/>
		<stop  offset="0.4894" style="stop-color:#FFF5F4"/>
		<stop  offset="0.5" style="stop-color:#FFF5F4"/>
		<stop  offset="0.5" style="stop-color:#F9F2F4"/>
		<stop  offset="0.5001" style="stop-color:#E8EBF4"/>
		<stop  offset="0.5003" style="stop-color:#DDE5F4"/>
		<stop  offset="0.5005" style="stop-color:#D6E2F4"/>
		<stop  offset="0.501" style="stop-color:#D4E1F4"/>
		<stop  offset="0.7062" style="stop-color:#D4E1F4"/>
		<stop  offset="0.74" style="stop-color:#D4E1F4"/>
		<stop  offset="0.741" style="stop-color:#FFF5F4"/>
		<stop  offset="0.8346" style="stop-color:#FFF5F4"/>
		<stop  offset="0.85" style="stop-color:#FFF5F4"/>
		<stop  offset="0.851" style="stop-color:#D4E1F4"/>
	</linearGradient>
	<polygon style="fill:url(#SVGID_1_);" points="453.611,149.308 255.999,280.148 58.386,149.308 255.999,19.318 	"/>
	<polygon style="fill:#A4C2F7;" points="255.999,396.073 501.913,255.572 408.633,202.604 255.999,289.809 	"/>
	<polygon style="fill:#E3E7F2;" points="251.594,289.809 131.679,218.186 38.399,271.154 251.594,396.073 464.122,270.488 
		377.179,222.186 	"/>
	<polygon style="fill:#FFFFFF;" points="255.999,502.598 10.084,362.097 103.365,309.129 255.999,396.333 	"/>
	<polygon style="fill:#A4C2F7;" points="255.999,502.598 501.913,362.097 408.633,309.129 255.999,396.333 	"/>
	<polygon style="fill:#E3E7F2;" points="251.594,396.333 131.679,324.721 38.399,377.689 251.594,502.598 464.122,377.013 
		377.179,328.711 	"/>
	<g>
		<path style="fill:#428DFF;" d="M255.999,299.469c-1.681,0-3.333-0.439-4.793-1.274L5.291,157.695
			c-3.008-1.719-4.866-4.917-4.868-8.382c-0.002-3.465,1.852-6.665,4.858-8.387l125.585-72.028
			c4.625-2.605,10.485-0.991,13.123,3.615c2.638,4.606,1.067,10.477-3.52,13.149L29.527,149.294l226.472,129.387l226.396-129.349
			L255.866,20.691l-57.67,30.943c-4.701,2.51-10.546,0.739-13.064-3.957c-2.518-4.696-0.759-10.544,3.932-13.072l62.368-33.462
			c2.927-1.564,6.451-1.521,9.34,0.113l245.915,139.651c3.017,1.715,4.883,4.917,4.887,8.388c0.004,3.471-1.854,6.677-4.868,8.399
			l-245.916,140.5C259.331,299.03,257.68,299.469,255.999,299.469L255.999,299.469z"/>
		<path style="fill:#428DFF;" d="M255.999,405.733c-1.681,0-3.333-0.439-4.793-1.274L5.291,263.959
			c-3.014-1.722-4.872-4.928-4.868-8.399c0.004-3.471,1.869-6.673,4.887-8.388L98.593,194.2c2.968-1.684,6.603-1.679,9.566,0.014
			l147.84,84.467l147.849-84.467c2.963-1.693,6.599-1.698,9.566-0.014l93.274,52.972c3.018,1.715,4.883,4.917,4.887,8.388
			c0.004,3.471-1.854,6.677-4.868,8.399l-245.916,140.5C259.331,405.294,257.68,405.733,255.999,405.733z M29.602,255.596
			l226.397,129.349l226.396-129.349l-73.736-41.878L260.79,298.195c-2.969,1.698-6.616,1.698-9.585,0l-147.858-84.476
			L29.602,255.596z"/>
		<path style="fill:#428DFF;" d="M255.999,511.997c-1.681,0-3.333-0.439-4.793-1.274L5.291,370.224
			c-3.014-1.722-4.872-4.928-4.868-8.399c0.004-3.471,1.869-6.673,4.887-8.388l93.283-52.972c2.968-1.684,6.603-1.679,9.566,0.014
			l147.84,84.467l147.849-84.467c2.963-1.693,6.599-1.698,9.566-0.014l93.274,52.972c3.018,1.715,4.883,4.917,4.887,8.388
			c0.004,3.471-1.854,6.677-4.868,8.399l-245.916,140.5C259.331,511.558,257.68,511.997,255.999,511.997L255.999,511.997z
			 M29.602,361.86l226.397,129.349L482.394,361.86l-73.736-41.878L260.79,404.459c-2.969,1.698-6.616,1.698-9.585,0l-147.858-84.476
			L29.602,361.86z"/>
		<circle style="fill:#428DFF;" cx="164.67" cy="57.959" r="9.66"/>
	</g>
</g>
<g>
</g>
<g>
</g>
<g>
</g>
<g>
</g>
<g>
</g>
<g>
</g>
<g>
</g>
<g>
</g>
<g>
</g>
<g>
</g>
<g>
</g>
<g>
</g>
<g>
</g>
<g>
</g>
<g>
</g>
</svg>
